<?xml version="1.0" encoding="UTF-8" standalone="no"?>
<svg
   xmlns:dc="http://purl.org/dc/elements/1.1/"
   xmlns:cc="http://creativecommons.org/ns#"
   xmlns:rdf="http://www.w3.org/1999/02/22-rdf-syntax-ns#"
   xmlns:svg="http://www.w3.org/2000/svg"
   xmlns="http://www.w3.org/2000/svg"
   id="svg26"
   version="1.1"
   width="50px"
   viewBox="-104 0 464 464"
   height="50px">
  <metadata
     id="metadata32">
    <rdf:RDF>
      <cc:Work
         rdf:about="">
        <dc:format>image/svg+xml</dc:format>
        <dc:type
           rdf:resource="http://purl.org/dc/dcmitype/StillImage" />
      </cc:Work>
    </rdf:RDF>
  </metadata>
  <defs
     id="defs30" />
  <path
     id="path2"
     fill="#e9686a"
     d="m0 96h256v320h-256zm0 0" />
  <path
     id="path4"
     fill="#dd3e46"
     d="m240 464h-224l-16-48h256zm0 0" />
  <path
     id="path6"
     fill="#dd3e46"
     d="m256 96h-256l16-64h224zm0 0" />
  <path
     id="path8"
     fill="#cfdfe8"
     d="m16 0h224v32h-224zm0 0" />
  <path
     id="path10"
     fill="#5a6470"
     d="m0 296c88.96875 6.6875 177.949219-12.777344 256-56v32s-88 96-256 96zm0 0" />
  <g
     id="g24"
     fill="#fff">
    <path
       id="path12"
       d="m56 232h-24c-4.417969 0-8-3.582031-8-8v-48c0-4.417969 3.582031-8 8-8h24v16h-16v32h16zm0 0" />
    <path
       id="path14"
       d="m112 232h-32c-4.417969 0-8-3.582031-8-8v-48c0-4.417969 3.582031-8 8-8h32c4.417969 0 8 3.582031 8 8v48c0 4.417969-3.582031 8-8 8zm-24-16h16v-32h-16zm0 0" />
    <path
       id="path16"
       d="m168 232h-24c-4.417969 0-8-3.582031-8-8v-56h16v48h16zm0 0" />
    <path
       id="path18"
       d="m224 168h-32c-4.417969 0-8 3.582031-8 8v56h16v-16h16v16h16v-56c0-4.417969-3.582031-8-8-8zm-24 32v-16h16v16zm0 0" />
    <path
       id="path20"
       d="m128 120h16v16h-16zm0 0" />
    <path
       id="path22"
       d="m232 152h-16v-16h-56v-16h64c4.417969 0 8 3.582031 8 8zm0 0" />
  </g>
</svg>
