<?xml version="1.0" standalone="no"?>
<!DOCTYPE svg PUBLIC "-//W3C//DTD SVG 20010904//EN"
 "http://www.w3.org/TR/2001/REC-SVG-20010904/DTD/svg10.dtd">
<svg version="1.0" xmlns="http://www.w3.org/2000/svg"
 width="1151.000000pt" height="1280.000000pt" viewBox="0 0 1151.000000 1280.000000"
 preserveAspectRatio="xMidYMid meet">
<g transform="translate(0.000000,1280.000000) scale(0.100000,-0.100000)"
fill="#000000" stroke="none">
<path d="M4725 12779 c-360 -56 -659 -173 -850 -333 -324 -271 -518 -642 -575
-1101 -25 -205 -7 -565 37 -705 23 -75 136 -296 204 -400 244 -374 641 -711
1114 -947 281 -141 492 -216 895 -318 680 -174 1395 -447 1591 -608 112 -93
193 -218 249 -385 44 -131 61 -247 62 -422 2 -485 -137 -875 -437 -1221 -194
-225 -515 -450 -818 -573 -56 -23 -108 -45 -114 -49 -10 -6 -13 -75 -13 -287
0 -153 4 -281 9 -284 12 -8 255 58 424 114 358 121 716 313 997 536 123 98
346 324 428 434 151 204 337 639 412 965 69 303 82 642 31 841 -104 407 -416
809 -803 1035 -263 154 -955 344 -1734 478 -558 96 -1128 338 -1499 636 -112
90 -255 239 -312 324 -71 105 -145 317 -179 511 -22 122 -22 335 -1 455 48
268 185 519 341 624 234 158 458 239 689 248 298 13 528 -61 735 -235 88 -74
205 -266 237 -389 18 -69 19 -159 2 -192 -6 -14 -46 -49 -87 -78 -95 -66 -188
-157 -196 -190 -11 -42 23 -216 66 -345 93 -278 245 -517 469 -736 95 -93 95
-94 135 -87 90 14 118 50 222 285 133 301 228 736 194 893 -23 107 -97 190
-231 258 -42 21 -86 50 -97 64 -11 14 -28 60 -37 103 -18 81 -102 333 -140
417 -29 67 -158 219 -259 307 -247 214 -465 312 -805 363 -130 19 -203 18
-356 -6z"/>
<path d="M30 8221 c0 -14 189 -191 265 -248 155 -116 254 -152 424 -152 518 0
1195 -299 1716 -757 473 -416 994 -723 1601 -944 412 -150 878 -257 1279 -293
l140 -12 3 -1016 c2 -1158 -9 -1032 98 -1070 81 -29 188 -28 274 1 36 12 73
29 82 37 17 15 18 82 20 1070 l3 1055 85 34 c302 121 576 298 766 496 279 290
416 620 431 1035 9 232 -25 480 -93 683 l-29 85 -3532 3 c-2026 1 -3533 -2
-3533 -7z"/>
<path d="M8550 8227 c0 -2 8 -28 19 -58 46 -135 56 -222 55 -474 0 -203 -3
-260 -22 -365 -29 -159 -84 -373 -133 -517 -22 -62 -39 -116 -39 -119 0 -4 57
52 126 124 277 290 555 492 945 687 366 184 731 306 1109 370 290 50 507 115
678 205 81 42 192 123 192 140 0 7 -509 10 -1465 10 -806 0 -1465 -2 -1465 -3z"/>
<path d="M5155 5640 c-163 -24 -350 -99 -501 -201 -211 -142 -410 -401 -539
-700 -54 -127 -65 -180 -65 -314 0 -500 313 -935 877 -1218 218 -110 283 -123
698 -133 868 -23 1506 173 1810 556 184 232 293 474 303 673 8 167 -28 274
-132 384 -159 171 -377 232 -784 220 -241 -7 -394 -33 -624 -107 l-98 -31 0
-184 c0 -102 4 -185 8 -185 4 0 50 10 102 22 73 17 129 22 240 22 132 1 149
-1 187 -22 24 -12 61 -46 84 -75 134 -167 125 -332 -25 -495 -49 -52 -76 -71
-179 -121 -420 -204 -861 -225 -1283 -60 -123 48 -205 102 -283 184 -74 80
-122 159 -157 260 -24 70 -28 95 -27 195 0 127 18 211 74 347 26 64 43 89 98
141 94 90 220 183 305 225 l73 37 6 137 c4 75 7 207 7 295 l0 158 -62 -1 c-35
-1 -85 -5 -113 -9z"/>
<path d="M5263 4415 c-123 -57 -251 -170 -303 -268 -23 -43 -24 -49 -10 -71
24 -40 108 -134 145 -161 l34 -26 91 61 c50 34 93 67 96 73 2 7 3 103 2 215
l-3 202 -52 -25z"/>
<path d="M4507 3148 c-47 -122 -60 -200 -61 -353 -1 -127 3 -163 22 -235 76
-279 313 -586 532 -688 351 -163 922 -279 1535 -312 340 -19 406 -33 557 -124
66 -40 145 -66 200 -66 51 0 50 22 -1 87 -141 179 -427 307 -811 363 -286 42
-740 137 -870 182 -362 126 -581 422 -607 821 l-6 98 -33 14 c-46 19 -231 126
-340 196 -50 33 -93 59 -96 59 -3 0 -13 -19 -21 -42z"/>
<path d="M5462 2568 l3 -323 80 -42 c115 -60 277 -123 335 -130 l50 -6 0 412
0 411 -235 0 -235 0 2 -322z"/>
<path d="M5460 1223 c0 -264 -3 -341 -15 -388 -50 -192 -252 -325 -515 -339
-177 -9 -359 -61 -570 -163 -74 -36 -155 -72 -180 -79 -91 -28 -269 -55 -435
-64 -254 -16 -426 -50 -688 -137 l-142 -48 1427 -3 c786 -1 2070 -1 2855 0
l1428 3 -80 39 c-104 50 -339 128 -490 162 -96 22 -158 28 -310 34 -245 9
-271 17 -525 152 -185 99 -324 132 -608 148 -222 12 -313 47 -422 167 -124
136 -224 402 -247 663 l-8 84 -110 17 c-107 16 -312 60 -347 74 -17 7 -18 -13
-18 -322z"/>
</g>
</svg>
