<?xml version="1.0" standalone="no"?>
<!DOCTYPE svg PUBLIC "-//W3C//DTD SVG 20010904//EN"
 "http://www.w3.org/TR/2001/REC-SVG-20010904/DTD/svg10.dtd">
<svg version="1.0" xmlns="http://www.w3.org/2000/svg"
 width="1280.000000pt" height="1107.000000pt" viewBox="0 0 1280.000000 1107.000000"
 preserveAspectRatio="xMidYMid meet">
<metadata>
Created by potrace 1.15, written by Peter Selinger 2001-2017
</metadata>
<g transform="translate(0.000000,1107.000000) scale(0.100000,-0.100000)"
fill="#000000" stroke="none">
<path d="M6105 11059 c-635 -48 -1239 -228 -1782 -530 -1230 -684 -2038 -1889
-2208 -3289 -23 -182 -31 -639 -16 -823 99 -1174 641 -2224 1539 -2980 57 -48
101 -87 99 -87 -38 0 -1012 -216 -1267 -281 -630 -161 -1189 -349 -1680 -565
-163 -72 -541 -258 -698 -344 -88 -48 -92 -52 -92 -84 0 -19 6 -36 13 -39 7
-3 79 -10 159 -17 170 -15 303 -5 501 36 400 83 607 120 607 108 0 -2 -51 -41
-114 -87 -260 -194 -467 -434 -571 -662 -36 -79 -109 -284 -104 -289 2 -2 87
45 189 105 466 275 1014 508 1615 687 168 51 510 142 531 142 7 0 5 -27 -7
-82 -10 -46 -24 -123 -31 -173 l-13 -90 -5 114 -5 115 -55 12 c-30 7 -58 10
-61 8 -12 -7 -72 -157 -89 -224 l-17 -65 -41 125 c-22 69 -43 118 -46 110 -21
-61 -89 -290 -105 -355 -60 -243 -48 -463 34 -643 14 -31 22 -59 18 -62 -5 -4
-152 -97 -328 -206 -346 -214 -971 -606 -995 -624 -13 -10 -13 -10 0 -6 8 3
240 99 515 214 344 144 567 243 715 320 l215 111 82 -84 c46 -46 116 -111 157
-144 69 -56 311 -231 320 -231 3 0 21 20 42 45 30 38 34 48 24 60 -8 9 15 3
56 -16 123 -56 577 -249 585 -249 5 0 20 23 35 51 21 42 23 53 12 60 -7 5 -76
46 -153 91 -216 126 -325 201 -390 269 -33 34 -51 58 -40 54 103 -38 218 -73
365 -110 238 -59 220 -59 236 -5 8 25 14 50 14 57 0 6 -70 35 -156 63 -145 49
-321 126 -311 136 3 3 30 -7 62 -21 80 -35 211 -69 408 -105 l168 -31 252 100
c297 117 415 163 797 306 1546 581 1903 722 2455 967 249 111 633 299 799 392
l138 77 167 -21 c990 -124 1923 -395 2697 -783 142 -71 340 -186 508 -293 72
-46 132 -80 134 -75 4 13 -95 533 -124 646 -37 148 -82 231 -169 314 l-73 69
62 18 c52 16 103 18 361 19 310 1 371 7 495 47 82 26 130 50 203 101 84 59 81
78 -25 144 -302 188 -819 363 -1648 559 -236 56 -932 197 -1132 231 -60 9
-108 20 -108 23 1 3 38 30 83 60 140 93 623 459 894 676 271 218 1364 1126
1360 1130 -4 5 -362 80 -507 108 -335 63 -687 114 -965 139 -112 11 -139 16
-136 28 2 8 21 84 43 169 94 371 133 714 125 1120 -5 287 -19 440 -63 690
-235 1341 -1130 2522 -2369 3125 -674 328 -1456 479 -2190 424z m700 -1508
c499 -76 916 -250 1310 -546 424 -320 755 -760 944 -1257 264 -694 239 -1488
-67 -2158 l-57 -125 -45 -8 c-112 -20 -795 -125 -798 -122 -2 1 90 66 203 144
l205 142 0 1429 0 1430 -66 0 c-65 0 -66 -1 -198 -85 -73 -47 -136 -85 -139
-85 -4 0 -8 56 -9 125 l-3 125 -184 -130 c-102 -72 -189 -130 -193 -130 -5 0
-8 61 -6 135 2 74 2 135 0 135 -2 0 -71 -60 -153 -132 -83 -73 -153 -134 -157
-136 -4 -1 -6 61 -4 138 2 77 -1 140 -5 140 -5 0 -58 -56 -118 -124 l-110
-123 -5 135 -5 135 -373 -504 c-206 -277 -377 -505 -381 -507 -4 -1 -176 225
-382 503 l-374 505 -5 -135 -5 -135 -110 124 c-60 69 -113 125 -117 125 -4 1
-9 -62 -10 -139 l-3 -139 -155 135 -155 136 -3 -136 c-1 -75 -5 -136 -7 -136
-2 0 -87 58 -187 129 l-183 129 -3 -119 c-1 -65 -4 -119 -7 -119 -2 0 -60 36
-129 80 -124 79 -125 80 -190 80 l-66 0 2 -1431 3 -1431 814 -563 c447 -309
813 -566 814 -571 0 -5 -136 -86 -303 -181 l-302 -172 -132 62 c-722 346
-1269 983 -1499 1747 -36 119 -75 299 -98 455 -19 121 -19 577 -1 705 48 340
127 598 272 896 286 585 787 1068 1390 1339 229 104 568 196 820 224 52 6 111
13 130 15 92 11 471 -4 595 -23z m-1367 -1618 c339 -239 623 -441 631 -448 11
-11 10 -14 -8 -20 -17 -5 -158 80 -656 397 l-635 403 0 69 0 68 25 -16 c14 -9
303 -213 643 -453z m2572 393 l0 -74 -624 -396 c-343 -218 -629 -396 -636
-396 -6 0 -20 5 -31 10 -17 10 65 71 628 470 357 252 651 459 656 459 4 1 7
-32 7 -73z m-2420 -315 c223 -195 419 -367 435 -383 17 -16 -166 109 -405 277
-239 169 -441 313 -448 319 -8 8 -14 41 -15 89 -2 65 0 74 13 64 8 -7 197
-171 420 -366z m2030 300 l0 -79 -407 -288 c-225 -158 -424 -299 -443 -313
-19 -14 -29 -18 -22 -10 12 14 864 767 870 768 1 1 2 -35 2 -78z m-1831 -286
c171 -190 309 -345 306 -345 -3 0 -119 100 -257 223 -139 122 -279 244 -311
271 l-57 50 0 73 c0 40 2 73 4 73 3 0 145 -155 315 -345z m1509 191 c-2 -2
-136 -119 -298 -261 -162 -142 -304 -265 -314 -274 -11 -9 65 79 168 194 104
116 245 273 315 351 l126 141 3 -75 c2 -41 2 -75 0 -76z m-1328 -206 c127
-173 220 -304 206 -290 -14 14 -124 135 -245 270 l-220 245 -1 60 c0 50 2 57
14 45 7 -8 118 -157 246 -330z m884 -13 c-120 -133 -233 -258 -252 -277 -29
-30 84 125 391 538 l72 97 3 -58 3 -57 -217 -243z m-323 -543 c31 -7 74 -21
95 -31 l39 -16 -45 -14 c-78 -23 -213 -34 -303 -24 -95 11 -177 30 -177 41 0
13 80 41 155 55 76 15 148 11 236 -11z"/>
</g>
</svg>
